<mxfile host="Electron" modified="2025-05-24T19:55:04.191Z" agent="Mozilla/5.0 (Windows NT 10.0; Win64; x64) AppleWebKit/537.36 (KHTML, like Gecko) draw.io/22.0.3 Chrome/114.0.5735.289 Electron/25.8.4 Safari/537.36" etag="Ca8-fQto-rfdPY3mpUd0" version="22.0.3" type="device">
  <diagram id="R2lEEEUBdFMjLlhIrx00" name="Page-1">
    <mxGraphModel dx="2026" dy="1171" grid="1" gridSize="10" guides="1" tooltips="1" connect="1" arrows="1" fold="1" page="1" pageScale="1" pageWidth="1169" pageHeight="827" math="0" shadow="0" extFonts="Permanent Marker^https://fonts.googleapis.com/css?family=Permanent+Marker">
      <root>
        <mxCell id="0" />
        <mxCell id="1" parent="0" />
        <mxCell id="oC-60u8wvNoj3N1KErrD-7" value="Художник" style="shape=umlActor;verticalLabelPosition=bottom;verticalAlign=top;html=1;" parent="1" vertex="1">
          <mxGeometry x="225" y="405" width="30" height="60" as="geometry" />
        </mxCell>
        <mxCell id="oC-60u8wvNoj3N1KErrD-8" value="Программист" style="shape=umlActor;verticalLabelPosition=bottom;verticalAlign=top;html=1;" parent="1" vertex="1">
          <mxGeometry x="225" y="275" width="30" height="60" as="geometry" />
        </mxCell>
        <mxCell id="oC-60u8wvNoj3N1KErrD-10" style="edgeStyle=orthogonalEdgeStyle;rounded=0;orthogonalLoop=1;jettySize=auto;html=1;" parent="1" source="oC-60u8wvNoj3N1KErrD-9" target="oC-60u8wvNoj3N1KErrD-8" edge="1">
          <mxGeometry relative="1" as="geometry">
            <Array as="points">
              <mxPoint x="285" y="375" />
              <mxPoint x="285" y="305" />
            </Array>
          </mxGeometry>
        </mxCell>
        <mxCell id="oC-60u8wvNoj3N1KErrD-11" style="edgeStyle=orthogonalEdgeStyle;rounded=0;orthogonalLoop=1;jettySize=auto;html=1;" parent="1" source="oC-60u8wvNoj3N1KErrD-9" target="oC-60u8wvNoj3N1KErrD-7" edge="1">
          <mxGeometry relative="1" as="geometry" />
        </mxCell>
        <mxCell id="oC-60u8wvNoj3N1KErrD-23" style="edgeStyle=orthogonalEdgeStyle;rounded=0;orthogonalLoop=1;jettySize=auto;html=1;exitX=1;exitY=0.3333333333333333;exitDx=0;exitDy=0;exitPerimeter=0;entryX=0;entryY=0.5;entryDx=0;entryDy=0;endArrow=none;endFill=0;" parent="1" source="oC-60u8wvNoj3N1KErrD-9" target="oC-60u8wvNoj3N1KErrD-15" edge="1">
          <mxGeometry relative="1" as="geometry" />
        </mxCell>
        <mxCell id="oC-60u8wvNoj3N1KErrD-24" style="edgeStyle=orthogonalEdgeStyle;rounded=0;orthogonalLoop=1;jettySize=auto;html=1;exitX=1;exitY=0.3333333333333333;exitDx=0;exitDy=0;exitPerimeter=0;entryX=0;entryY=0.5;entryDx=0;entryDy=0;endArrow=none;endFill=0;" parent="1" source="oC-60u8wvNoj3N1KErrD-9" target="oC-60u8wvNoj3N1KErrD-16" edge="1">
          <mxGeometry relative="1" as="geometry" />
        </mxCell>
        <mxCell id="oC-60u8wvNoj3N1KErrD-25" style="edgeStyle=orthogonalEdgeStyle;rounded=0;orthogonalLoop=1;jettySize=auto;html=1;exitX=1;exitY=0.3333333333333333;exitDx=0;exitDy=0;exitPerimeter=0;entryX=0;entryY=0.5;entryDx=0;entryDy=0;endArrow=none;endFill=0;" parent="1" source="oC-60u8wvNoj3N1KErrD-9" target="oC-60u8wvNoj3N1KErrD-17" edge="1">
          <mxGeometry relative="1" as="geometry" />
        </mxCell>
        <mxCell id="oC-60u8wvNoj3N1KErrD-26" style="edgeStyle=orthogonalEdgeStyle;rounded=0;orthogonalLoop=1;jettySize=auto;html=1;exitX=1;exitY=0.3333333333333333;exitDx=0;exitDy=0;exitPerimeter=0;entryX=0;entryY=0.5;entryDx=0;entryDy=0;endArrow=none;endFill=0;" parent="1" source="oC-60u8wvNoj3N1KErrD-9" target="oC-60u8wvNoj3N1KErrD-18" edge="1">
          <mxGeometry relative="1" as="geometry" />
        </mxCell>
        <mxCell id="oC-60u8wvNoj3N1KErrD-28" style="edgeStyle=orthogonalEdgeStyle;rounded=0;orthogonalLoop=1;jettySize=auto;html=1;exitX=1;exitY=0.3333333333333333;exitDx=0;exitDy=0;exitPerimeter=0;entryX=0;entryY=0.5;entryDx=0;entryDy=0;endArrow=none;endFill=0;" parent="1" source="oC-60u8wvNoj3N1KErrD-9" target="oC-60u8wvNoj3N1KErrD-20" edge="1">
          <mxGeometry relative="1" as="geometry" />
        </mxCell>
        <mxCell id="oC-60u8wvNoj3N1KErrD-29" style="edgeStyle=orthogonalEdgeStyle;rounded=0;orthogonalLoop=1;jettySize=auto;html=1;exitX=1;exitY=0.3333333333333333;exitDx=0;exitDy=0;exitPerimeter=0;entryX=0;entryY=0.5;entryDx=0;entryDy=0;endArrow=none;endFill=0;" parent="1" source="oC-60u8wvNoj3N1KErrD-9" target="oC-60u8wvNoj3N1KErrD-21" edge="1">
          <mxGeometry relative="1" as="geometry" />
        </mxCell>
        <mxCell id="oC-60u8wvNoj3N1KErrD-9" value="Пользователь" style="shape=umlActor;verticalLabelPosition=bottom;verticalAlign=top;html=1;" parent="1" vertex="1">
          <mxGeometry x="315" y="345" width="30" height="60" as="geometry" />
        </mxCell>
        <mxCell id="oC-60u8wvNoj3N1KErrD-13" value="&lt;h1 style=&quot;font-family: Consolas, &amp;quot;Courier New&amp;quot;, monospace; font-size: 14px; line-height: 19px;&quot;&gt;&lt;br&gt;&lt;/h1&gt;" style="whiteSpace=wrap;html=1;fillColor=none;align=center;" parent="1" vertex="1">
          <mxGeometry x="455" y="105" width="340" height="640" as="geometry" />
        </mxCell>
        <mxCell id="oC-60u8wvNoj3N1KErrD-14" value="&lt;h1 style=&quot;border-color: var(--border-color); color: rgb(0, 0, 0); font-style: normal; font-variant-ligatures: normal; font-variant-caps: normal; letter-spacing: normal; orphans: 2; text-align: center; text-indent: 0px; text-transform: none; widows: 2; word-spacing: 0px; -webkit-text-stroke-width: 0px; background-color: rgb(251, 251, 251); text-decoration-thickness: initial; text-decoration-style: initial; text-decoration-color: initial; font-family: Consolas, &amp;quot;Courier New&amp;quot;, monospace; font-size: 14px; line-height: 19px;&quot;&gt;&lt;span style=&quot;border-color: var(--border-color); background-color: rgb(255, 255, 255);&quot;&gt;Платформа формирования и улучшения запросов&lt;/span&gt;&lt;/h1&gt;" style="text;whiteSpace=wrap;html=1;" parent="1" vertex="1">
          <mxGeometry x="455" y="105" width="360" height="60" as="geometry" />
        </mxCell>
        <mxCell id="oC-60u8wvNoj3N1KErrD-15" value="&lt;div style=&quot;font-family: Consolas, &amp;quot;Courier New&amp;quot;, monospace; font-size: 14px; line-height: 19px;&quot;&gt;Авторизация логин&lt;/div&gt;" style="ellipse;whiteSpace=wrap;html=1;" parent="1" vertex="1">
          <mxGeometry x="475" y="145" width="140" height="40" as="geometry" />
        </mxCell>
        <mxCell id="oC-60u8wvNoj3N1KErrD-16" value="&lt;div style=&quot;font-family: Consolas, &amp;quot;Courier New&amp;quot;, monospace; font-size: 14px; line-height: 19px;&quot;&gt;&lt;font color=&quot;#121212&quot; style=&quot;&quot;&gt;Редактирование промпта в текстовом режиме&lt;/font&gt;&lt;/div&gt;" style="ellipse;whiteSpace=wrap;html=1;fillColor=none;" parent="1" vertex="1">
          <mxGeometry x="475" y="195" width="160" height="70" as="geometry" />
        </mxCell>
        <mxCell id="oC-60u8wvNoj3N1KErrD-17" value="&lt;div style=&quot;font-family: Consolas, &amp;quot;Courier New&amp;quot;, monospace; font-size: 14px; line-height: 19px;&quot;&gt;Редактирование промпта в режиме токенов&lt;/div&gt;" style="ellipse;whiteSpace=wrap;html=1;" parent="1" vertex="1">
          <mxGeometry x="475" y="275" width="140" height="70" as="geometry" />
        </mxCell>
        <mxCell id="oC-60u8wvNoj3N1KErrD-18" value="&lt;div style=&quot;font-family: Consolas, &amp;quot;Courier New&amp;quot;, monospace; font-size: 14px; line-height: 19px;&quot;&gt;Авто-дополнение промпта добавление деталей&lt;/div&gt;" style="ellipse;whiteSpace=wrap;html=1;" parent="1" vertex="1">
          <mxGeometry x="475" y="355" width="190" height="60" as="geometry" />
        </mxCell>
        <mxCell id="oC-60u8wvNoj3N1KErrD-19" value="&lt;div style=&quot;font-family: Consolas, &amp;quot;Courier New&amp;quot;, monospace; font-size: 14px; line-height: 19px;&quot;&gt;Оценка качества промпта рейтинг 0–100&lt;/div&gt;" style="ellipse;whiteSpace=wrap;html=1;" parent="1" vertex="1">
          <mxGeometry x="475" y="425" width="150" height="70" as="geometry" />
        </mxCell>
        <mxCell id="oC-60u8wvNoj3N1KErrD-34" style="edgeStyle=orthogonalEdgeStyle;rounded=0;orthogonalLoop=1;jettySize=auto;html=1;entryX=0.5;entryY=0;entryDx=0;entryDy=0;exitX=1;exitY=0.5;exitDx=0;exitDy=0;dashed=1;endArrow=open;endFill=0;" parent="1" source="oC-60u8wvNoj3N1KErrD-20" target="oC-60u8wvNoj3N1KErrD-33" edge="1">
          <mxGeometry relative="1" as="geometry">
            <Array as="points">
              <mxPoint x="705" y="545" />
            </Array>
          </mxGeometry>
        </mxCell>
        <mxCell id="oC-60u8wvNoj3N1KErrD-35" value="&amp;lt;&amp;lt;includes&amp;gt;&amp;gt;" style="edgeLabel;html=1;align=center;verticalAlign=middle;resizable=0;points=[];" parent="oC-60u8wvNoj3N1KErrD-34" vertex="1" connectable="0">
          <mxGeometry x="-0.0562" y="-3" relative="1" as="geometry">
            <mxPoint y="-13" as="offset" />
          </mxGeometry>
        </mxCell>
        <mxCell id="oC-60u8wvNoj3N1KErrD-39" style="edgeStyle=orthogonalEdgeStyle;rounded=0;orthogonalLoop=1;jettySize=auto;html=1;exitX=1;exitY=0;exitDx=0;exitDy=0;entryX=0;entryY=1;entryDx=0;entryDy=0;dashed=1;endArrow=open;endFill=0;" parent="1" source="oC-60u8wvNoj3N1KErrD-20" target="oC-60u8wvNoj3N1KErrD-38" edge="1">
          <mxGeometry relative="1" as="geometry">
            <Array as="points">
              <mxPoint x="620" y="495" />
              <mxPoint x="645" y="495" />
            </Array>
          </mxGeometry>
        </mxCell>
        <mxCell id="oC-60u8wvNoj3N1KErrD-40" value="&amp;lt;&amp;lt;includes&amp;gt;&amp;gt;" style="edgeLabel;html=1;align=center;verticalAlign=middle;resizable=0;points=[];" parent="oC-60u8wvNoj3N1KErrD-39" vertex="1" connectable="0">
          <mxGeometry x="0.1656" y="-3" relative="1" as="geometry">
            <mxPoint x="-13" y="7" as="offset" />
          </mxGeometry>
        </mxCell>
        <mxCell id="oC-60u8wvNoj3N1KErrD-20" value="&lt;div style=&quot;font-family: Consolas, &amp;quot;Courier New&amp;quot;, monospace; font-size: 14px; line-height: 19px;&quot;&gt;Предпросмотр результатов генерации Preview&lt;/div&gt;" style="ellipse;whiteSpace=wrap;html=1;" parent="1" vertex="1">
          <mxGeometry x="475" y="505" width="170" height="80" as="geometry" />
        </mxCell>
        <mxCell id="oC-60u8wvNoj3N1KErrD-21" value="&lt;div style=&quot;font-family: Consolas, &amp;quot;Courier New&amp;quot;, monospace; font-size: 14px; line-height: 19px;&quot;&gt;Сохранение и просмотр истории запросов&lt;/div&gt;" style="ellipse;whiteSpace=wrap;html=1;" parent="1" vertex="1">
          <mxGeometry x="475" y="605" width="140" height="70" as="geometry" />
        </mxCell>
        <mxCell id="oC-60u8wvNoj3N1KErrD-30" style="edgeStyle=orthogonalEdgeStyle;rounded=0;orthogonalLoop=1;jettySize=auto;html=1;entryX=1;entryY=0.5;entryDx=0;entryDy=0;" parent="1" source="oC-60u8wvNoj3N1KErrD-22" target="oC-60u8wvNoj3N1KErrD-21" edge="1">
          <mxGeometry relative="1" as="geometry" />
        </mxCell>
        <mxCell id="oC-60u8wvNoj3N1KErrD-22" value="PostgreSQL" style="shape=datastore;whiteSpace=wrap;html=1;" parent="1" vertex="1">
          <mxGeometry x="835" y="595" width="110" height="90" as="geometry" />
        </mxCell>
        <mxCell id="oC-60u8wvNoj3N1KErrD-27" style="edgeStyle=orthogonalEdgeStyle;rounded=0;orthogonalLoop=1;jettySize=auto;html=1;exitX=1;exitY=0.3333333333333333;exitDx=0;exitDy=0;exitPerimeter=0;entryX=0.006;entryY=0.407;entryDx=0;entryDy=0;entryPerimeter=0;endArrow=none;endFill=0;" parent="1" source="oC-60u8wvNoj3N1KErrD-9" target="oC-60u8wvNoj3N1KErrD-19" edge="1">
          <mxGeometry relative="1" as="geometry" />
        </mxCell>
        <mxCell id="oC-60u8wvNoj3N1KErrD-32" style="edgeStyle=orthogonalEdgeStyle;rounded=0;orthogonalLoop=1;jettySize=auto;html=1;exitX=0;exitY=0.3333333333333333;exitDx=0;exitDy=0;exitPerimeter=0;entryX=1;entryY=0.5;entryDx=0;entryDy=0;endArrow=none;endFill=0;" parent="1" source="oC-60u8wvNoj3N1KErrD-31" target="oC-60u8wvNoj3N1KErrD-33" edge="1">
          <mxGeometry relative="1" as="geometry" />
        </mxCell>
        <mxCell id="oC-60u8wvNoj3N1KErrD-31" value="Kandinsky 3.1" style="shape=umlActor;verticalLabelPosition=bottom;verticalAlign=top;html=1;" parent="1" vertex="1">
          <mxGeometry x="875" y="505" width="30" height="60" as="geometry" />
        </mxCell>
        <mxCell id="oC-60u8wvNoj3N1KErrD-33" value="Предросмотр изображений" style="ellipse;whiteSpace=wrap;html=1;" parent="1" vertex="1">
          <mxGeometry x="635" y="555" width="140" height="70" as="geometry" />
        </mxCell>
        <mxCell id="oC-60u8wvNoj3N1KErrD-41" style="edgeStyle=orthogonalEdgeStyle;rounded=0;orthogonalLoop=1;jettySize=auto;html=1;entryX=1;entryY=0.5;entryDx=0;entryDy=0;endArrow=none;endFill=0;" parent="1" source="oC-60u8wvNoj3N1KErrD-37" target="oC-60u8wvNoj3N1KErrD-38" edge="1">
          <mxGeometry relative="1" as="geometry" />
        </mxCell>
        <mxCell id="oC-60u8wvNoj3N1KErrD-42" style="edgeStyle=orthogonalEdgeStyle;rounded=0;orthogonalLoop=1;jettySize=auto;html=1;exitX=0;exitY=0.3333333333333333;exitDx=0;exitDy=0;exitPerimeter=0;endArrow=none;endFill=0;" parent="1" source="oC-60u8wvNoj3N1KErrD-37" target="oC-60u8wvNoj3N1KErrD-18" edge="1">
          <mxGeometry relative="1" as="geometry" />
        </mxCell>
        <mxCell id="oC-60u8wvNoj3N1KErrD-37" value="DeepSeek" style="shape=umlActor;verticalLabelPosition=bottom;verticalAlign=top;html=1;" parent="1" vertex="1">
          <mxGeometry x="875" y="385" width="30" height="60" as="geometry" />
        </mxCell>
        <mxCell id="oC-60u8wvNoj3N1KErrD-38" value="Предрпросмотр текстового ответа" style="ellipse;whiteSpace=wrap;html=1;" parent="1" vertex="1">
          <mxGeometry x="645" y="435" width="140" height="70" as="geometry" />
        </mxCell>
        <mxCell id="tyT_AQ8j52j2bxQfSyh9-1" value="&lt;div style=&quot;font-weight: normal; line-height: 19px; font-size: 30px;&quot;&gt;&lt;div style=&quot;font-size: 30px;&quot;&gt;&lt;span style=&quot;font-size: 30px;&quot;&gt;&lt;font style=&quot;font-size: 30px;&quot;&gt;Диаграмма вариантов использования платформы&lt;/font&gt;&lt;/span&gt;&lt;/div&gt;&lt;/div&gt;" style="text;whiteSpace=wrap;html=1;fontColor=default;labelBackgroundColor=none;fontSize=30;" vertex="1" parent="1">
          <mxGeometry x="215" y="20" width="740" height="40" as="geometry" />
        </mxCell>
      </root>
    </mxGraphModel>
  </diagram>
</mxfile>
